HIERARCHY
ROOT Hips
{
	OFFSET 0.00000 0.00000 0.00000
	CHANNELS 6 Xposition Yposition Zposition Zrotation Yrotation Xrotation 
	JOINT LHipJoint
	{
		OFFSET 0 0 0
		CHANNELS 3 Zrotation Yrotation Xrotation
		JOINT LeftUpLeg
		{
			OFFSET 1.75344 -1.53157 0.77399
			CHANNELS 3 Zrotation Yrotation Xrotation
			JOINT LeftLeg
			{
				OFFSET 2.25415 -6.19323 0.00000
				CHANNELS 3 Zrotation Yrotation Xrotation
				JOINT LeftFoot
				{
					OFFSET 2.30342 -6.32861 0.00000
					CHANNELS 3 Zrotation Yrotation Xrotation
					JOINT LeftToeBase
					{
						OFFSET 0.10958 -0.30108 1.49206
						CHANNELS 3 Zrotation Yrotation Xrotation
						End Site
						{
							OFFSET 0.00000 -0.00000 0.77783
						}
					}
				}
			}
		}
	}
	JOINT RHipJoint
	{
		OFFSET 0 0 0
		CHANNELS 3 Zrotation Yrotation Xrotation
		JOINT RightUpLeg
		{
			OFFSET -1.81912 -1.53156 0.77399
			CHANNELS 3 Zrotation Yrotation Xrotation
			JOINT RightLeg
			{
				OFFSET -2.22882 -6.12365 0.00000
				CHANNELS 3 Zrotation Yrotation Xrotation
				JOINT RightFoot
				{
					OFFSET -2.21943 -6.09785 0.00000
					CHANNELS 3 Zrotation Yrotation Xrotation
					JOINT RightToeBase
					{
						OFFSET -0.18931 -0.52012 1.59379
						CHANNELS 3 Zrotation Yrotation Xrotation
						End Site
						{
							OFFSET -0.00000 -0.00000 0.84686
						}
					}
				}
			}
		}
	}
	JOINT LowerBack
	{
		OFFSET 0 0 0
		CHANNELS 3 Zrotation Yrotation Xrotation
		JOINT Spine
		{
			OFFSET -0.00200 1.66634 -0.14248
			CHANNELS 3 Zrotation Yrotation Xrotation
			JOINT Spine1
			{
				OFFSET -0.00875 1.64542 0.09514
				CHANNELS 3 Zrotation Yrotation Xrotation
				JOINT Neck
				{
					OFFSET 0 0 0
					CHANNELS 3 Zrotation Yrotation Xrotation
					JOINT Neck1
					{
						OFFSET 0.02257 1.59605 0.00839
						CHANNELS 3 Zrotation Yrotation Xrotation
						JOINT Head
						{
							OFFSET -0.10214 1.57530 -0.23335
							CHANNELS 3 Zrotation Yrotation Xrotation
							End Site
							{
								OFFSET -0.03588 1.60717 -0.08062
							}
						}
					}
				}
				JOINT LeftShoulder
				{
					OFFSET 0 0 0
					CHANNELS 3 Zrotation Yrotation Xrotation
					JOINT LeftArm
					{
						OFFSET 2.54983 1.10186 0.40078
						CHANNELS 3 Zrotation Yrotation Xrotation
						JOINT LeftForeArm
						{
							OFFSET 4.28840 -0.00000 0.00000
							CHANNELS 3 Zrotation Yrotation Xrotation
							JOINT LeftHand
							{
								OFFSET 3.06552 -0.00000 -0.00000
								CHANNELS 3 Zrotation Yrotation Xrotation
								JOINT LeftFingerBase
								{
									OFFSET 0 0 0
									CHANNELS 3 Zrotation Yrotation Xrotation
									JOINT LeftHandIndex1
									{
										OFFSET 0.75304 -0.00000 0.00000
										CHANNELS 3 Zrotation Yrotation Xrotation
										End Site
										{
											OFFSET 0.60712 -0.00000 0.00000
										}
									}
								}
								JOINT LThumb
								{
									OFFSET 0 0 0
									CHANNELS 3 Zrotation Yrotation Xrotation
									End Site
									{
										OFFSET 0.61639 -0.00000 0.61639
									}
								}
							}
						}
					}
				}
				JOINT RightShoulder
				{
					OFFSET 0 0 0
					CHANNELS 3 Zrotation Yrotation Xrotation
					JOINT RightArm
					{
						OFFSET -2.60909 1.35448 0.21802
						CHANNELS 3 Zrotation Yrotation Xrotation
						JOINT RightForeArm
						{
							OFFSET -4.52172 -0.00000 -0.00000
							CHANNELS 3 Zrotation Yrotation Xrotation
							JOINT RightHand
							{
								OFFSET -2.89140 -0.00000 0.00000
								CHANNELS 3 Zrotation Yrotation Xrotation
								JOINT RightFingerBase
								{
									OFFSET 0 0 0
									CHANNELS 3 Zrotation Yrotation Xrotation
									JOINT RightHandIndex1
									{
										OFFSET -0.68054 -0.00000 0.00000
										CHANNELS 3 Zrotation Yrotation Xrotation
										End Site
										{
											OFFSET -0.54867 -0.00000 0.00000
										}
									}
								}
								JOINT RThumb
								{
									OFFSET 0 0 0
									CHANNELS 3 Zrotation Yrotation Xrotation
									End Site
									{
										OFFSET -0.55705 -0.00000 0.55705
									}
								}
							}
						}
					}
				}
			}
		}
	}
}
MOTION
Frames: 12
Frame Time: .0083333
10.5085 13.5416 19.5423 -175.0770 -8.4226 548.3400 0.0000 0.0000 0.0000 -14.2394 -15.9618 -42.4394 13.8374 19.0640 71.7073 3.4423 12.4949 -40.9439 5.4709 -13.8952 -42.8193 0.0000 0.0000 0.0000 14.5195 19.5571 -44.9590 -11.6941 -18.2583 65.0158 -1.7525 -8.9347 -29.5909 -1.4416 7.5907 -21.4775 -0.2689 1.8305 18.3299 0.1261 2.3928 -2.7982 -0.4128 1.1263 -13.5128 -5.9107 -1.8687 -9.9033 9.3450 -2.5153 -9.4718 4.0954 -1.5491 -1.1266 0.0000 0.0000 0.0000 -42.5461 -21.4347 11.3394 16.7016 -26.4628 -3.9535 -0.0000 -0.0000 19.9042 -6.8985 -42.7108 4.6915 -7.1250 0.0000 -0.0000 -21.3559 -10.4290 26.6047 0.0000 0.0000 0.0000 39.2694 27.4803 24.8834 -33.4273 43.6559 -13.7161 0.0000 -0.0000 -0.4118 -6.8335 -50.2000 5.2602 7.1250 -0.0000 -0.0000 60.4268 -72.7429 -43.7917
10.4772 13.5502 19.5859 -175.3430 -8.0081 548.9120 0.0000 0.0000 0.0000 -14.5315 -16.3624 -42.9303 13.7389 19.0329 71.4054 3.4000 12.6671 -40.8555 5.3035 -13.7176 -42.1178 0.0000 0.0000 0.0000 13.7341 20.1296 -45.7318 -11.6575 -18.2421 64.8990 -1.6996 -8.8877 -29.2129 -1.3481 7.3507 -20.7585 -0.4990 1.6891 18.2114 0.1431 2.1570 -2.9290 -0.1926 1.0378 -13.6045 -5.5856 -1.5566 -9.9719 8.9929 -2.1535 -9.6098 3.9187 -1.3862 -1.1987 0.0000 0.0000 0.0000 -41.0998 -22.5117 11.8869 16.9682 -26.8158 -4.0730 -0.0000 -0.0000 17.0866 -8.2713 -42.8613 5.6474 -7.1250 0.0000 -0.0000 -21.9888 -10.5163 27.5398 0.0000 0.0000 0.0000 37.4908 27.6336 22.9679 -33.0081 43.3362 -13.4276 0.0000 -0.0000 -1.0166 -7.6939 -50.8087 5.9774 7.1250 -0.0000 -0.0000 61.6707 -73.3200 -45.4932
10.4475 13.5629 19.6293 -175.5130 -7.5180 549.3700 0.0000 0.0000 0.0000 -14.7266 -16.6494 -43.3258 13.6292 18.9977 71.0689 3.3320 12.8519 -40.6581 5.1333 -13.5324 -41.3956 0.0000 0.0000 0.0000 13.1233 20.6530 -46.3256 -11.5824 -18.2085 64.6590 -1.6647 -8.7990 -28.9209 -1.2772 7.1623 -20.1971 -0.8228 1.4649 18.1233 0.1779 1.7915 -3.1431 0.1369 0.8988 -13.8119 -4.8653 -1.1164 -9.6977 8.5945 -1.6510 -9.6627 3.6551 -1.1628 -1.3110 0.0000 -0.0000 0.0000 -39.6849 -22.8576 12.2948 17.3088 -27.2631 -4.2278 -0.0000 -0.0000 15.0612 -8.6215 -42.9068 5.8934 -7.1250 0.0000 -0.0000 -22.1491 -10.5476 27.7816 0.0000 -0.0000 0.0000 36.0416 27.9418 21.8157 -32.5542 42.9846 -13.1171 0.0000 -0.0000 -1.7785 -8.5132 -51.5225 6.6835 7.1250 -0.0000 -0.0000 63.4131 -73.9087 -47.6621
10.4158 13.5764 19.6669 -175.6820 -7.0272 549.7110 0.0000 0.0000 0.0000 -14.9711 -16.8603 -43.5447 13.5141 18.9600 70.7148 3.2649 13.1705 -40.5490 4.9962 -13.3795 -40.8063 0.0000 0.0000 0.0000 12.5928 21.0285 -46.6994 -11.4787 -18.1615 64.3265 -1.6531 -8.5990 -28.7081 -1.2012 6.9537 -19.5782 -0.7751 1.5004 18.0699 0.1998 1.8527 -3.0940 0.1183 0.9242 -13.7225 -4.9448 -1.1160 -10.1549 8.4625 -1.6646 -9.6485 3.6190 -1.1684 -1.2285 -0.0000 0.0000 0.0000 -38.7465 -24.3653 12.2765 17.4450 -27.4407 -4.2904 -0.0000 -0.0000 14.4446 -8.7400 -42.7133 5.9535 -7.1250 0.0000 -0.0000 -22.2022 -10.3617 27.8019 -0.0000 0.0000 0.0000 33.9929 27.8234 19.6336 -31.8768 42.4487 -12.6576 0.0000 -0.0000 -2.0548 -8.4603 -51.7732 6.6646 7.1250 -0.0000 -0.0000 64.2623 -73.9832 -48.4958
10.3854 13.5910 19.6963 -175.8320 -6.4604 549.8490 0.0000 0.0000 0.0000 -15.3040 -16.8170 -43.5024 13.3793 18.9149 70.2996 3.2224 13.4868 -40.5550 4.9160 -13.2886 -40.4587 0.0000 0.0000 0.0000 12.1555 21.5326 -46.6979 -11.3318 -18.0936 63.8544 -1.5984 -8.6584 -28.3784 -1.2180 7.0005 -19.7168 -0.7754 1.5649 17.9079 0.2258 1.9410 -2.9231 0.1288 0.9660 -13.4286 -4.9887 -1.0418 -10.3536 8.3170 -1.5873 -9.8516 3.5803 -1.1410 -1.2693 0.0000 0.0000 0.0000 -37.7701 -25.6173 12.0925 17.7027 -27.7748 -4.4098 -0.0000 -0.0000 14.1122 -9.6233 -42.4580 6.5296 -7.1250 0.0000 -0.0000 -22.6054 -10.0970 28.3066 0.0000 0.0000 0.0000 32.0778 27.7171 17.3941 -31.0804 41.8017 -12.1234 0.0000 -0.0000 -1.8247 -7.7003 -52.0933 6.0894 7.1250 -0.0000 -0.0000 65.7399 -73.8165 -49.6287
10.3561 13.6145 19.7221 -175.9150 -5.7954 549.8340 0.0000 0.0000 0.0000 -15.6471 -16.5262 -43.2798 13.2038 18.8545 69.7572 3.1440 13.9074 -40.4673 4.9480 -13.3250 -40.5975 0.0000 0.0000 0.0000 11.8744 22.0737 -46.4429 -11.1346 -18.0003 63.2179 -1.5380 -8.6995 -27.9919 -1.2646 7.1282 -20.0956 -0.8490 1.5973 17.8088 0.3044 1.9751 -2.7572 0.2540 0.9905 -13.1835 -4.9345 -0.8907 -10.3784 8.1176 -1.4102 -9.9762 3.5068 -1.0615 -1.3213 0.0000 -0.0000 0.0000 -36.8191 -26.3367 12.0107 18.0158 -28.1774 -4.5567 -0.0000 -0.0000 13.9219 -10.3370 -42.4739 7.0215 -7.1250 0.0000 -0.0000 -22.9306 -10.0964 28.7831 0.0000 -0.0000 0.0000 30.3559 27.6229 15.6080 -30.4349 41.2633 -11.6954 0.0000 -0.0000 -1.6473 -6.4899 -52.3280 5.1451 7.1250 -0.0000 -0.0000 67.1617 -73.4514 -50.4962
10.3278 13.6559 19.7428 -175.9490 -5.2466 549.7170 0.0000 0.0000 0.0000 -15.9537 -16.2054 -42.8314 12.9776 18.7741 69.0560 3.0999 14.1256 -40.4081 4.9298 -13.3043 -40.5184 0.0000 0.0000 0.0000 11.7862 22.4228 -45.9225 -10.8864 -17.8791 62.4122 -1.4964 -8.6459 -27.6652 -1.2879 7.1910 -20.2825 -0.9563 1.5347 17.8477 0.4266 1.8795 -2.6583 0.4796 0.9589 -13.0989 -4.7603 -0.6885 -10.3650 7.9092 -1.1646 -9.8927 3.4056 -0.9405 -1.3153 0.0000 -0.0000 0.0000 -35.9786 -26.8091 11.8887 18.1813 -28.3887 -4.6351 -0.0000 -0.0000 14.0125 -10.4415 -42.4955 7.0962 -7.1250 0.0000 -0.0000 -22.9780 -10.1149 28.8587 0.0000 -0.0000 0.0000 28.9030 27.6245 14.2885 -29.8497 40.7642 -11.3114 0.0000 -0.0000 -1.4991 -5.5143 -52.3570 4.3715 7.1250 -0.0000 -0.0000 67.7841 -73.1048 -50.6639
10.3008 13.7133 19.7556 -175.9540 -4.8421 549.4980 0.0000 0.0000 0.0000 -16.2394 -15.8336 -42.1612 12.7117 18.6756 68.2277 3.1570 13.8821 -40.5104 4.7296 -13.0727 -39.6413 0.0000 0.0000 0.0000 11.8485 22.6697 -45.1006 -10.6048 -17.7362 61.4912 -1.4531 -8.7042 -27.4006 -1.3496 7.3546 -20.7702 -1.0117 1.4553 17.9443 0.5190 1.7713 -2.6747 0.6432 0.9173 -13.1782 -4.5251 -0.5113 -10.0223 7.7894 -0.9384 -9.7692 3.3248 -0.8264 -1.3487 0.0000 -0.0000 0.0000 -35.2856 -27.1562 12.0187 18.2577 -28.4859 -4.6715 -0.0000 -0.0000 14.0755 -10.4237 -42.4374 7.0762 -7.1250 0.0000 -0.0000 -22.9702 -10.0606 28.8299 0.0000 -0.0000 0.0000 27.7767 27.3537 13.4454 -29.3193 40.3028 -10.9667 0.0000 -0.0000 -1.2168 -5.0352 -52.5594 4.0016 7.1250 -0.0000 -0.0000 68.6746 -72.9973 -51.3476
10.2735 13.7651 19.7632 -175.9450 -4.3565 549.2870 0.0000 0.0000 0.0000 -16.5182 -15.2998 -41.5296 12.4226 18.5636 67.3223 3.1865 13.5939 -40.4584 4.5468 -12.8545 -38.8261 0.0000 0.0000 0.0000 11.9145 22.9563 -44.2839 -10.3024 -17.5764 60.4943 -1.3954 -8.7202 -26.9993 -1.4369 7.5787 -21.4415 -1.0819 1.4305 18.0401 0.6411 1.7358 -2.6734 0.8280 0.9117 -13.2395 -4.3615 -0.4166 -10.1889 7.5906 -0.8177 -9.3467 3.2201 -0.7479 -1.1902 -0.0000 -0.0000 0.0000 -34.7586 -27.4101 12.1024 18.3201 -28.5652 -4.7013 -0.0000 -0.0000 14.0605 -10.8419 -42.2695 7.3403 -7.1250 0.0000 -0.0000 -23.1617 -9.8960 29.0591 -0.0000 -0.0000 0.0000 26.6556 27.0620 12.7228 -28.8110 39.8522 -10.6394 0.0000 -0.0000 -0.8098 -4.3128 -52.9402 3.4440 7.1250 -0.0000 -0.0000 70.2375 -72.8551 -52.6104
10.2465 13.8036 19.7679 -175.9370 -3.8668 549.1590 0.0000 0.0000 0.0000 -16.7724 -14.7530 -41.0296 12.1319 18.4458 66.4062 3.1239 13.6247 -40.1884 4.5032 -12.8015 -38.6298 0.0000 0.0000 0.0000 11.9580 23.0915 -43.6695 -10.0061 -17.4133 59.5088 -1.3415 -8.5239 -26.4661 -1.5007 7.7377 -21.9202 -0.9729 1.4860 18.2105 0.7871 1.8520 -2.7384 0.8912 0.9642 -13.4212 -4.7511 -0.5112 -10.4070 7.5777 -0.8837 -8.9062 3.2814 -0.7430 -1.0038 0.0000 0.0000 0.0000 -34.5996 -27.8284 12.4529 18.3474 -28.5997 -4.7143 -0.0000 -0.0000 13.8700 -11.5730 -42.1010 7.8174 -7.1250 0.0000 -0.0000 -23.4957 -9.7291 29.4991 0.0000 0.0000 0.0000 25.4912 26.6763 11.8719 -28.1274 39.2333 -10.2042 0.0000 -0.0000 -0.1357 -3.3391 -52.8954 2.6642 7.1250 -0.0000 -0.0000 70.6010 -72.4913 -52.5200
10.2160 13.8720 19.7703 -175.9010 -3.4743 549.0670 0.0000 0.0000 0.0000 -16.9944 -14.2089 -40.3733 11.7750 18.2939 65.2738 3.1153 13.3233 -39.9518 4.3970 -12.6708 -38.1483 0.0000 0.0000 0.0000 12.0837 23.0828 -42.9280 -9.6635 -17.2162 58.3577 -1.2952 -8.2977 -25.9599 -1.4954 7.7248 -21.8812 -0.8266 1.3977 18.1543 0.8787 1.7815 -2.8428 0.9315 0.9261 -13.5058 -4.8802 -0.4648 -10.4196 7.6512 -0.7843 -8.4742 3.3298 -0.6672 -0.8660 0.0000 0.0000 0.0000 -34.2130 -27.6997 13.1252 18.4862 -28.7753 -4.7810 -0.0000 -0.0000 13.0492 -12.0247 -42.1073 8.1284 -7.1250 0.0000 -0.0000 -23.7002 -9.7316 29.8045 0.0000 0.0000 0.0000 24.7667 26.6461 11.3565 -27.4080 38.5655 -9.7524 0.0000 0.0000 0.5404 -2.6630 -52.4619 2.1122 7.1250 -0.0000 -0.0000 69.6680 -72.1127 -51.2229
10.1850 13.9358 19.7655 -175.8830 -3.1012 548.9160 0.0000 0.0000 0.0000 -17.2490 -13.6316 -39.6145 11.4080 18.1290 64.0996 3.1403 12.7629 -39.7098 4.2186 -12.4457 -37.3275 0.0000 0.0000 0.0000 12.2525 22.8927 -42.1589 -9.3199 -17.0092 57.1898 -1.2616 -7.9139 -25.4334 -1.4650 7.6493 -21.6537 -0.7244 1.2831 17.8714 1.0378 1.6712 -2.8277 1.0888 0.8746 -13.3191 -4.9900 -0.4021 -10.5299 7.4644 -0.6692 -8.0104 3.2846 -0.5809 -0.7042 0.0000 0.0000 0.0000 -33.8890 -27.3257 13.8890 18.6889 -29.0303 -4.8790 -0.0000 -0.0000 12.0595 -12.5627 -42.1254 8.5012 -7.1250 0.0000 -0.0000 -23.9427 -9.7467 30.1727 0.0000 0.0000 0.0000 23.9033 26.4212 11.3055 -27.0670 38.2430 -9.5406 0.0000 0.0000 0.6685 -2.1222 -52.2339 1.6779 7.1250 -0.0000 -0.0000 69.3078 -71.8448 -50.5805
